<?xml version="1.0" encoding="utf-8"?>
<!-- Generator: Adobe Illustrator 24.3.0, SVG Export Plug-In . SVG Version: 6.00 Build 0)  -->
<svg version="1.1" id="Lag_1" xmlns="http://www.w3.org/2000/svg" xmlns:xlink="http://www.w3.org/1999/xlink" x="0px" y="0px"
	 viewBox="0 0 1021 200" style="enable-background:new 0 0 1021 200;" xml:space="preserve">
<style type="text/css">
	.st0{fill:#FFFFFF;}
</style>
<rect width="1021" height="200"/>
<path d="M488,61.3c0-1.5,0-2.8,0-4.1c0-0.2,0.3-0.5,0.4-0.5c0.9,0,1.9-0.1,2.8,0.1c1.1,0.2,1.6,1,1.6,2.1s-0.5,1.9-1.6,2.1
	C490.2,61.2,489.1,61.2,488,61.3z"/>
<path d="M487.9,51.9c0-1.8,0.1-2,1.2-2c2.1,0,3.1,0.6,3.1,1.9c0,1.4-1,2.1-2.8,2.1C488,54,487.9,53.9,487.9,51.9z"/>
<path d="M535.1,58c-0.2,0.8-0.3,1.6-0.7,2.3c-0.5,0.9-1.3,1.2-2.4,1.2c-0.9,0-1.7-0.6-2-1.5c-0.4-1.2-0.4-2.5,0-3.6
	c0.4-1.2,1.5-1.8,2.8-1.6c1.2,0.2,1.9,1.1,2,2.4c0,0.3,0,0.6,0,0.9L535.1,58z"/>
<path d="M545.1,57.9c0.1-0.5,0.1-1.1,0.3-1.8c0.4-1.2,1.5-1.7,2.7-1.6c1.2,0.2,1.9,0.9,2,2.1c0.1,1,0,2-0.2,2.9
	c-0.3,1.2-1.4,1.9-2.6,1.7c-1.2-0.2-2-1-2.1-2.3C545.1,58.8,545.1,58.5,545.1,57.9z"/>
<path d="M507.5,58c0,0.5-0.1,1.1-0.2,1.6c-0.4,1.3-1.2,2-2.5,1.9c-1.4,0-2.4-0.7-2.6-2c-0.2-0.8-0.2-1.7-0.1-2.5
	c0.2-1.6,1.4-2.5,2.9-2.4s2.4,1.1,2.4,2.9C507.5,57.6,507.5,57.8,507.5,58L507.5,58z"/>
<path d="M564.7,58c0,2.1-0.7,3.1-2.1,3.4c-1.5,0.3-2.9-0.4-3.2-1.9c-0.2-0.8-0.2-1.7-0.1-2.5c0.2-1.6,1.4-2.5,2.9-2.4
	s2.4,1.1,2.4,2.8C564.7,57.5,564.7,57.8,564.7,58z"/>
<path d="M596.6,58.9c0,1.8-1.6,3.1-3,2.6c-0.5-0.2-0.9-0.7-1.1-1.2c-0.2-0.7,0.2-1.3,0.9-1.5c0.9-0.2,1.8-0.4,2.7-0.4
	C596.3,58.3,596.5,58.8,596.6,58.9z"/>
<path d="M444.2,55.5c0-1.8,0-3.7,0-5.5c0-0.7,0.3-1,1-1c0.8,0,1.6,0,2.4,0c4,0.1,6.3,2.5,6.1,6.5c-0.2,4.3-2.5,6.5-6.8,6.5
	c-0.6,0-1.2,0-1.8,0.1c-0.7,0-1-0.2-1-0.9C444.2,59.4,444.2,57.4,444.2,55.5z"/>
<path class="st0" d="M436.1,61.1c0,1,0,1.9,0,2.9c0,0.9-0.5,1.3-1.4,1.3c-1.5,0-3,0-4.5,0c-0.8,0-1.1-0.4-1.1-1.1c0-1.3,0-2.5,0-3.8
	c0-1.1-0.3-1.4-1.4-1.4c-0.7,0-1.3,0-2,0c-0.8,0-1.1,0.3-1.1,1.1c0,1.3,0,2.6,0,3.9c0,0.9-0.3,1.3-1.3,1.2c-1.4-0.1-2.9,0-4.3,0
	c-1.1,0-1.3-0.2-1.4-1.4c-0.1-1.4-0.1-2.7-0.2-4.1c-0.1-1.4,0.5-2.8,1.6-3.7c2.3-2,4.7-3.8,7.1-5.7c0.5-0.4,1-0.4,1.5,0.1
	c2.6,2.1,5.2,4.3,7.8,6.4c0.4,0.3,0.5,0.9,0.6,1.4C436.2,59.2,436.1,60.2,436.1,61.1L436.1,61.1z"/>
<path class="st0" d="M493.1,54.9c0.4,0.2,0.6,0.3,0.8,0.4c2.1,0.9,2.8,2,2.8,4.1c-0.1,1.9-1.3,3.7-3.1,4.1c-1.8,0.4-3.6,0.4-5.5,0.5
	c-1,0.1-1.9,0-2.9,0c-0.6,0-0.8-0.2-0.8-0.8c0-5,0-10,0-14.9c0-0.3,0.4-0.8,0.7-0.8c2.3,0,4.7,0,7,0.2c1.6,0.1,3.1,0.8,3.8,2.4
	c0.7,1.7-0.1,3.5-1.9,4.5C493.7,54.5,493.5,54.6,493.1,54.9z M488,61.3c1.2-0.1,2.2,0,3.3-0.2c1.1-0.2,1.6-1,1.6-2.1
	s-0.5-1.9-1.6-2.1c-0.9-0.2-1.9-0.1-2.8-0.1c-0.2,0-0.4,0.3-0.4,0.5C487.9,58.5,488,59.8,488,61.3z M488,51.9c0,2,0,2,1.4,2
	c1.9,0,2.8-0.7,2.8-2.1c0-1.3-1-1.9-3.1-1.9C488,50,487.9,50.1,488,51.9L488,51.9z"/>
<path class="st0" d="M534.7,62.5c-1,1-2.1,1.6-3.4,1.6c-2.1,0-3.8-1.1-4.5-3c-0.8-2.2-0.7-4.3,0.3-6.4c1.3-2.7,4.3-3.6,6.9-2
	c0.3,0.2,0.5,0.3,0.7,0.5c0.4-1.2,1-1.4,2.8-1.1c1,0.2,1,0.9,1,1.7c0,3.4,0,6.9-0.2,10.3c-0.2,2.8-2,4.8-4.9,5.2
	c-1.7,0.2-3.4,0.1-5.2,0c-0.9-0.1-1.4-2-0.8-2.6c0.2-0.2,0.7-0.1,1-0.1c1,0.1,1.9,0.4,2.9,0.3C533.8,66.8,535.2,65,534.7,62.5z
	 M535.1,58h-0.2c0-0.3,0-0.6,0-0.9c-0.1-1.3-0.9-2.2-2-2.4c-1.2-0.2-2.3,0.4-2.8,1.6c-0.4,1.2-0.5,2.5,0,3.6c0.3,0.9,1.1,1.4,2,1.5
	c1,0.1,1.9-0.2,2.4-1.2C534.8,59.5,534.9,58.7,535.1,58L535.1,58z"/>
<path class="st0" d="M545.3,53.3c1.1-0.5,2.1-1.2,3.3-1.4c2.1-0.4,4,0.8,4.7,2.8c0.8,2.2,0.8,4.4-0.2,6.5c-1.3,2.7-3.9,3.5-6.6,2.2
	c-0.4-0.2-0.8-0.4-1.3-0.7c0,1.9,0,3.7,0,5.4c0,1-0.3,1.3-1.3,1.2c-2.3,0-2.3-0.1-2.4-2.4c0-4.5,0-9.1,0-13.6c0-1.1,0.2-1.3,1.3-1.3
	h0.3C544.9,52.1,544.9,52.1,545.3,53.3z M545.1,57.9c0,0.5,0.1,0.9,0.1,1.2c0.2,1.3,0.9,2.1,2.1,2.3c1.2,0.2,2.3-0.6,2.6-1.7
	c0.2-1,0.3-2,0.2-3c-0.1-1.3-0.8-2-2-2.1c-1.2-0.2-2.3,0.4-2.7,1.6C545.2,56.8,545.2,57.5,545.1,57.9L545.1,57.9z"/>
<path class="st0" d="M432.4,48.3c0-0.7,0.1-1.4,0-2.1c-0.1-1,0.3-1.4,1.2-1.4c0.6,0,1.1,0.1,1.7,0s0.8,0.3,0.8,0.8
	c0,1.1,0.1,2.3-0.1,3.4c-0.3,1.7,0.3,3,1.6,4c0.5,0.4,1.1,0.8,1.7,1.3c1,0.8,1,1.1,0.1,2.2c-0.7,0.8-1,0.8-1.9,0.1c-3-2.5-6-5-9-7.5
	c-1.4-1.2-1.6-1.2-3,0c-3,2.5-6.1,5-9.1,7.5c-0.9,0.7-1.2,0.7-1.8-0.1c-0.9-1.1-0.9-1.5,0-2.3c3.6-2.9,7.1-5.8,10.7-8.8
	c1.3-1.1,2.1-1.1,3.5,0c0.6,0.5,1.2,1,1.8,1.5C431.2,47.4,431.7,47.8,432.4,48.3L432.4,48.3z"/>
<path class="st0" d="M504.7,64.1c-3.9,0-6.3-2.3-6.3-6.1s2.5-6.2,6.4-6.2s6.2,2.3,6.2,6C511.1,61.8,508.7,64.1,504.7,64.1z
	 M507.5,58L507.5,58c-0.1-0.2-0.1-0.3-0.1-0.5c0-1.8-0.9-2.7-2.4-2.9c-1.5-0.1-2.7,0.8-2.9,2.4c-0.1,0.8-0.1,1.7,0.1,2.5
	c0.3,1.3,1.3,2,2.6,2c1.2,0,2.1-0.6,2.5-1.9C507.4,59,507.5,58.5,507.5,58z"/>
<path class="st0" d="M561.1,64.1c-1.7-0.1-3.8-0.8-4.9-3.1c-1.1-2.4-1-4.8,0.7-7c2-2.5,6.8-2.9,9.4-0.8c2.4,2,2.7,6.4,0.6,8.9
	C565.6,63.7,563.8,64.2,561.1,64.1z M564.7,58c0-0.2,0-0.4,0-0.6c-0.1-1.7-0.9-2.6-2.4-2.8c-1.5-0.1-2.7,0.8-2.9,2.4
	c-0.1,0.8-0.1,1.7,0.1,2.5c0.3,1.5,1.7,2.3,3.2,1.9C564,61.1,564.7,60,564.7,58L564.7,58z"/>
<path class="st0" d="M590.4,55.3c0-0.7,0-1.4,0-2.1c0.1-0.3,0.3-0.5,0.5-0.6c1.8-0.5,3.6-1,5.5-0.5c2.2,0.6,3.3,1.8,3.3,4.1
	c0,2.2,0,4.5,0.1,6.7c0,0.8-0.3,1.1-1.1,1.1c-0.7,0-1.4,0-2.1,0l-0.3-1.4c-0.4,0.3-0.8,0.6-1.2,0.9c-1.4,1-3.4,0.9-4.7,0
	c-1.1-0.8-1.6-2.6-1.1-4.1c0.6-1.7,1.9-2.3,3.5-2.6c0.9-0.2,1.7-0.2,2.6-0.4c0.3-0.1,0.9-0.4,0.9-0.5c-0.1-0.4-0.4-1.2-0.6-1.2
	c-1.1-0.1-2.2-0.2-3.3-0.1C591.8,54.7,591.2,55,590.4,55.3z M596.6,58.9c-0.1-0.1-0.3-0.6-0.6-0.6c-0.9,0-1.8,0.2-2.7,0.4
	c-0.7,0.2-1.1,0.8-0.9,1.5c0.2,0.5,0.6,1.1,1.1,1.2C595,62.1,596.6,60.7,596.6,58.9L596.6,58.9z"/>
<path class="st0" d="M442.4,55.7c0-2.4,0-4.9,0-7.3c0-0.6,0.2-1.1,0.9-1c2,0.1,4,0,6,0.3c5,0.7,6.8,4.2,6.3,9.1
	c-0.5,4.4-3.7,7.1-8.2,7.3c-1.3,0-2.6,0-3.9,0c-0.8,0-1.1-0.2-1.1-1.1C442.4,60.5,442.4,58.1,442.4,55.7z M444.2,55.5
	c0,1.9,0,3.8,0,5.7c0,0.7,0.3,1,1,0.9c0.6,0,1.2-0.1,1.8-0.1c4.3,0,6.6-2.2,6.8-6.5c0.1-4-2.1-6.4-6.1-6.5c-0.8,0-1.6,0-2.4,0
	c-0.7,0-1,0.2-1,1C444.2,51.9,444.2,53.7,444.2,55.5z"/>
<path class="st0" d="M587.9,61.3c0.4,2.4,0,2.8-2.2,2.8c-2.5,0-3.8-1.2-3.9-3.7c-0.1-1.5,0-3,0-4.5c0-0.8-0.1-1.2-1-1.1
	c-1.2,0.1-0.8-1-0.9-1.6c-0.1-0.6,0.1-1.2,0.9-1.1c1,0.1,1.2-0.4,1.1-1.2c-0.1-1.1,0.5-1.6,1.4-1.8c2.1-0.6,2-0.6,2.1,1.5
	c0,1.2,0.2,1.4,1.5,1.5c1.2,0.1,1.3,0.2,1.2,1.9c-0.1,0.9-0.6,0.8-1.3,0.8c-1.2-0.1-1.4,0.1-1.4,1.3c0,1.1,0,2.2,0,3.3
	c0.1,1.6,0.4,1.9,2,1.9C587.5,61.3,587.6,61.3,587.9,61.3z"/>
<path class="st0" d="M606.4,55.3c0,2.4,0,4.7,0,7.1c0,1.4-0.2,1.5-1.6,1.5c-0.3,0-0.5,0-0.8,0c-0.8,0-1.2-0.4-1.2-1.2
	c0-2.7,0-5.4-0.1-8.1c0-2.2,0-4.5,0-6.7c0-1.4,0.1-1.4,1.4-1.4h0.4c1.6,0,1.8,0.2,1.8,1.9C606.3,50.6,606.3,53,606.4,55.3
	L606.4,55.3z"/>
<path class="st0" d="M517.1,55.4c0,2.5,0,4.9,0,7.4c0,0.9-0.3,1.2-1.2,1.2h-0.1c-2.2,0-2.3-0.1-2.3-2.2c0-4.6,0-9.1-0.1-13.7
	c0-1.4,0.1-1.6,1.4-1.6c2,0,2.2,0.1,2.2,1.7C517.1,50.5,517.1,52.9,517.1,55.4z"/>
<path class="st0" d="M574.4,53.5c0.9-0.5,1.7-1.2,2.6-1.6c0.9-0.4,1.3,0,1.4,1.1c0,0.3,0,0.7,0,1c0,0.7-0.3,1.1-1.1,1.1
	c-2.1,0.1-2.8,0.7-2.9,2.8c-0.1,1.6-0.1,3.3,0,4.9c0,0.8-0.3,1.2-1.1,1.1h-0.1c-2.2,0-2.4-0.1-2.4-2.3c0-2.7,0-5.5,0-8.2
	c0-1,0.2-1.5,1.3-1.3c0.3,0,0.6,0,0.9,0c0.9,0,1.4,0.3,1.5,1.2C574.4,53.5,574.5,53.6,574.4,53.5z"/>
<path class="st0" d="M466.4,53.8c0.4-0.3,0.6-0.6,0.9-0.8c1.3-1.1,2.8-1.4,4.4-0.8c1.5,0.5,2.2,1.6,2.3,3.1c0.1,2.7,0.1,5.4,0.1,8.1
	c0,0.8-0.6,0.5-1,0.5c-0.7,0.1-0.7-0.4-0.7-0.9c0-1.9,0-3.9,0-5.8c0-0.4,0-0.9-0.1-1.3c-0.2-1.2-0.7-2.1-2-2.4
	c-1.3-0.3-2.5,0.1-3.2,1.3c-0.4,0.7-0.7,1.5-0.7,2.3c-0.1,1.9,0,3.7,0,5.6c0,0.7-0.1,1.2-1,1.2c-0.8,0-0.9-0.5-0.9-1.1
	c0-3.1,0-6.3,0-9.4c0-0.6-0.2-1.3,0.8-1.3s1.1,0.5,1.1,1.3C466.3,53.5,466.4,53.7,466.4,53.8z"/>
<path class="st0" d="M520.3,57.9c0-1.6,0-3.1,0-4.7c0-0.8,0.3-1.1,1.1-1.1c2.4-0.1,2.6,0.1,2.6,2.5c0,2.7,0,5.4,0,8.1
	c0,1-0.4,1.4-1.3,1.3c-0.2,0-0.3,0-0.5,0c-1.6-0.1-1.8-0.2-1.8-1.9C520.3,60.7,520.3,59.3,520.3,57.9z"/>
<path class="st0" d="M458.7,58.1c0-1.6,0-3.2,0-4.8c0-0.7,0.1-1.2,0.9-1.2c0.9,0,0.9,0.6,0.9,1.2c0,3.2,0,6.4,0,9.5
	c0,0.7-0.1,1.2-1,1.2c-0.8,0-0.9-0.5-0.9-1.2C458.7,61.2,458.7,59.7,458.7,58.1z"/>
<path class="st0" d="M522.1,50.3c-1.2,0-2.1-0.8-2.1-1.9c0-1.1,0.8-1.9,2-1.9s2.1,0.8,2.1,1.9C524.1,49.4,523.2,50.3,522.1,50.3
	C522.2,50.3,522.1,50.3,522.1,50.3z"/>
<path class="st0" d="M460.9,47.9c-0.1,0.7-0.4,1.2-1.2,1.2c-0.8,0-1.2-0.5-1.2-1.2s0.4-1.2,1.2-1.2S460.8,47.2,460.9,47.9z"/>
</svg>
