<svg xmlns="http://www.w3.org/2000/svg" viewBox="0 0 292.22 337.94"><defs><style>.cls-1{fill:#181818;}.cls-2{fill:#ef7215;}.cls-3{fill:#c21807;}</style></defs><g id="Lag_2" data-name="Lag 2"><rect class="cls-1" width="292.22" height="337.94"/></g><g id="logo"><path class="cls-2" d="M54.43,98.4V38.79s96.63-1.88,108.23,0c29.13,4.68,41.66,15.53,48.83,27.39,6.95,9.43,7.19,13.86,8.6,20.26a80.34,80.34,0,0,1,1.69,12c.14,2.51.24,4.9.46,6.7.31,2.66-.11,10.87-2.23,20.48a70.74,70.74,0,0,1-8.36,21.72c-2.65,4.4-8,9.93-14.23,14.28s-11.29,6.46-17.81,7.32c-9.3,1.26-30.85,2.57-30.85,2.57L111,141.73s27.23.27,36.24-.66c7.53-.78,23.16-4.4,28.63-9.6,4.58-4.35,9.55-17.19,9.27-23.5s-6.42-18.7-11.26-22.84c-5.28-4.5-19.71-7.64-26.61-8.26-13.81-1.26-55.44-.34-55.44-.34v51.64Z"/><path class="cls-3" d="M54.43,111.32V250h37.4V233.11l67.19.34L180.2,250h57.59Zm35.76,92.35V182.8l31.42,20.85Z"/></g></svg>