<svg xmlns="http://www.w3.org/2000/svg" viewBox="0 0 7717.6 5898.3"><defs><style>.cls-1{fill:#0a81d1;}.cls-1,.cls-10,.cls-12,.cls-14,.cls-15,.cls-16,.cls-17,.cls-2,.cls-20,.cls-3,.cls-4,.cls-7,.cls-8,.cls-9{stroke:#000;}.cls-1,.cls-10,.cls-18,.cls-19{stroke-miterlimit:10;}.cls-2{fill:#d84444;}.cls-12,.cls-14,.cls-15,.cls-16,.cls-17,.cls-2,.cls-20,.cls-3,.cls-4,.cls-7,.cls-8,.cls-9{stroke-linejoin:round;}.cls-14,.cls-15,.cls-16,.cls-18,.cls-19,.cls-2,.cls-20,.cls-3,.cls-4,.cls-8,.cls-9{stroke-width:50px;}.cls-12,.cls-13,.cls-3{fill:#c8a4a8;}.cls-4{fill:#94553b;}.cls-5{fill:#46acce;}.cls-6{fill:#8a2475;}.cls-7{fill:#5d7034;}.cls-12,.cls-7{stroke-width:30px;}.cls-8{fill:#b3b9a4;}.cls-15,.cls-18,.cls-19,.cls-9{fill:none;}.cls-10,.cls-11{fill:#696472;}.cls-10{stroke-width:35px;}.cls-14{fill:#ee5314;}.cls-15,.cls-16,.cls-17,.cls-18,.cls-19{stroke-linecap:round;}.cls-17{stroke-width:60px;}.cls-18{stroke:#dc694b;}.cls-19{stroke:#e99d60;}.cls-20{fill:#da0e1b;}.cls-21{fill:#fff;}</style></defs><g id="Lag_2" data-name="Lag 2"><rect class="cls-1" x="0.5" y="0.5" width="7716.6" height="5897.3"/></g><g id="Layer_1" data-name="Layer 1"><path id="dress_underside" data-name="dress underside" class="cls-2" d="M3350.8,3401.8c9.3,19.2,25.8,34,43.3,46.3,75.8,53.1,173,65.5,254.7,109,59.3,31.6,108.7,78.5,162.8,118.4,77.7,57.3,164.9,100.1,251.6,142.5,128.4,62.8,257.4,125.9,394,167.9,50.1,15.4,118.3,19.2,170.6,16.2s185.5-68.3,177-120c-10-61-22.1-3.1-39-34-15.4-28.2-48.5-40.8-78.5-52.4-200.2-77.5-375-207.2-558.6-318.4s-387.3-206.8-601.9-203.7C3463.8,3274.6,3302.7,3302.3,3350.8,3401.8Z" transform="translate(0.5 0.5)"/><g id="feet"><g id="foot_left" data-name="foot left"><path class="cls-3" d="M3673.8,3282.4c2.8-11,5.7-23,1-33.3-3.6-7.8-10.9-13.2-18.2-17.7-52.2-32.3-119.7-38.5-176.9-16.3,1.4-6.6-8.7-10.5-14.2-6.6s-6.9,11.3-7.9,17.9a2216.34,2216.34,0,0,0-16.7,487.7c1.9,24.5,4.4,49.8,15.9,71.5,11.8,22.2,31.9,38.7,52.8,52.6,32.3,21.5,85.9,57.1,126.8,48.6,49.6-10.3,21.1-74.1,15.7-106.7a1204.61,1204.61,0,0,1,21.7-497.7Z" transform="translate(0.5 0.5)"/><path class="cls-4" d="M3275.6,3597.2c27.7,5,53.1,18.3,77.3,32.6,100.1,59,187.6,136.8,274.4,214,29,25.8,60.2,56.5,60.1,95.3-.1,31.9-23,60.4-51,75.8s-60.6,19.8-92.4,22.8c-54.8,5-111.6,6-163-13.7-74.4-28.6-127.3-97.8-155.1-172.4-22.3-60-30.7-123.9-36.1-187.4-1.7-19.7-6.2-41.6,11.7-54.9C3221.3,3594.6,3252.4,3593,3275.6,3597.2Z" transform="translate(0.5 0.5)"/></g><g id="foot_right" data-name="foot right"><path class="cls-3" d="M3953,4061.9c3.2,12.1,6.9,24.6,15.2,34.1,15.1,17.1,40.5,19.3,63.3,20.3l168,7.3a1077.1,1077.1,0,0,1-56-426.7c1.4-19.6,3.3-39.4-1.1-58.5-9.2-39.6-45-69-84.1-80.1-26-7.4-80.2-16.4-102.6,4.3-18.9,17.4-19.2,63.8-23,86.9a990.4,990.4,0,0,0,20.3,412.4Z" transform="translate(0.5 0.5)"/><path class="cls-4" d="M4188.9,4116.2c-36.7-21.9-79.6-30.5-121.8-37a1575.85,1575.85,0,0,0-200-17.9c-28.8-.8-59.1-.4-84.4,13.6s-42.8,46.1-31,72.4c10.3,22.9,37,32.5,61,39.8,127.8,38.9,257.3,78.1,390.8,84,15.7.7,31.9.8,46.5-4.9,13.6-5.3,31.7-21.1,28.5-37.8-2.3-11.9-16.1-15.6-22.2-25.5-9.6-15.6-12.4-33.4-24-48.6A156.64,156.64,0,0,0,4188.9,4116.2Z" transform="translate(0.5 0.5)"/></g></g><g id="skateboard"><path class="cls-5" d="M4193.9,4220.9c-398.2-53.6-771.6-276.6-1005.6-603.4-52.4-73.1-98.8-151.9-155.8-220.8-231.7,148.3-403.8,319.6-495.5,420.9,23.7,48.7,57.8,91.6,88.9,135.7,150.8,213.5,346.8,394.4,569.7,530.5,202.3,123.5,427.4,210.5,661,251.1C3963.1,4599.4,4109.8,4398,4193.9,4220.9Z" transform="translate(0.5 0.5)"/><path class="cls-6" d="M3923.4,4745.3c109,15,222.2,19.6,326.9-13.9s200.4-111.5,230.5-217.3-22.5-235.7-126.8-270.7c-31.3-10.5-64.6-12.4-97.5-15.4q-31.35-2.85-62.6-7c-84.1,177.1-230.9,378.5-337.3,514C3856.6,4735,3860,4736.5,3923.4,4745.3Z" transform="translate(0.5 0.5)"/><path class="cls-6" d="M3032.5,3396.8c-231.7,148.3-403.8,319.6-495.5,420.9-2.9-6-5.7-12-8.2-18.2-25.4-61-38.2-131.9-46.6-197.1-4.5-34.8-6.4-70.1-4.1-105.2,6.1-94.3,48.4-191.4,129.8-239.3,108.8-63.9,253.4-20.8,349.3,61.2C2957.2,3319.2,3000.2,3356.5,3032.5,3396.8Z" transform="translate(0.5 0.5)"/><path d="M4071.9,4786.7c-54.9,0-107-5.5-152.6-11.6a1869.16,1869.16,0,0,1-383.5-94.6,1960.29,1960.29,0,0,1-355.8-171,1992,1992,0,0,1-316.7-239.9,1924.92,1924.92,0,0,1-261.9-298.9c-6.4-9-13-18.2-19.4-27-29.7-41-60.4-83.4-80.9-132.6-29-69.7-41.6-150.3-48.6-204.8-5.1-40-6.5-76.3-4.3-110.9,3.4-53,17.2-104.5,39.9-148.8,25.3-49.5,61.5-89.1,104.7-114.4,57.4-33.7,126.8-43.2,200.9-27.6,64.8,13.7,129.8,46.3,183.1,91.9,74.4,63.6,128.8,145.1,181.5,223.9,17.7,26.4,35.9,53.8,54.5,79.8A1411.66,1411.66,0,0,0,3420,3830.5a1484,1484,0,0,0,535.8,306.2,1409,1409,0,0,0,303.6,61.5l10.6.9c30.7,2.6,62.5,5.4,93.8,15.9,57.4,19.3,104.1,63.7,131.6,125,25.8,57.6,31,124,14.5,182.4-15.8,55.4-49,107.2-96,149.8-43,39-96.4,69.4-154.2,87.9C4197,4779.9,4132.8,4786.7,4071.9,4786.7ZM2508.1,3499.2c-2,30.8-.7,63.3,3.9,99.4,6.5,51.1,18.3,126.4,44.5,189.4,17.8,42.7,45.1,80.5,74.1,120.4,6.5,9,13.3,18.3,19.8,27.6a1869.5,1869.5,0,0,0,253.8,289.6,1929.75,1929.75,0,0,0,307.1,232.6,1907.22,1907.22,0,0,0,345,165.8,1803.46,1803.46,0,0,0,371.2,91.5c89.6,12.1,206.3,21.6,313.8-12.8,49.8-15.9,95.5-41.9,132.3-75.2,38.7-35,65.8-77.1,78.5-121.7,12.8-45,8.6-96.5-11.5-141.4-20.5-45.9-54.6-78.8-95.9-92.6-24.5-8.2-51.4-10.5-79.8-13l-10.8-.9a1467,1467,0,0,1-316.5-64.2,1544.17,1544.17,0,0,1-557.5-318.6,1474.44,1474.44,0,0,1-216-240.1c-19.2-26.8-37.7-54.5-55.6-81.4-52.7-78.9-102.5-153.4-170.6-211.6-45.8-39.1-101.4-67.1-156.5-78.8-41.3-8.7-102.2-12.2-158.1,20.6-33.8,19.8-61.2,50.1-81.6,90-19,37.1-30.5,80.4-33.4,125.3v.1Z" transform="translate(0.5 0.5)"/><path class="cls-7" d="M3119.8,3944l-78,77s-184-83-271-263l102-56S2941.8,3831,3119.8,3944Z" transform="translate(0.5 0.5)"/><path class="cls-7" d="M3658.8,4297s118,131,260,185l-70,100s-207-10-332-204Z" transform="translate(0.5 0.5)"/><path class="cls-8" d="M3600.8,4541.7c27.1,19.3,47.9,50,57.6,80a158.35,158.35,0,0,1-.8,98.4c-9.7,28.6-29.4,52.2-58.2,62.7-17.3,6.4-36,8.2-54.4,8-33.4-.4-68.5-8.3-92.8-31.3-33.3-31.4-46-90.8-36.8-134.6,6.5-30.8,26.1-55.4,50.7-74.1,29.3-22.2,65.8-36.4,102.5-25.3A113.32,113.32,0,0,1,3600.8,4541.7Z" transform="translate(0.5 0.5)"/><path class="cls-9" d="M3571.2,4649c-2,6.1-6.6,11.2-12,14.7-10.9,7-26.8,8.2-35.8-2.7-6.5-7.9-6.7-18.8.2-26.3C3536.8,4620.3,3579.8,4621.7,3571.2,4649Z" transform="translate(0.5 0.5)"/><line class="cls-9" x1="3540.3" y1="4656.5" x2="3878.3" y2="4344.5"/><path class="cls-8" d="M3832.6,4202.5c23.2-1.9,46.8,2.4,65,12.7,25.4,14.3,45,37.1,60.1,62,10.2,16.8,18.7,35,22.2,54.4s1.9,40.1-7.3,57.6c-12.1,23.3-36.6,38.6-62.4,43.6s-52.6.6-77.3-8.3c-23.6-8.5-46.3-21.4-61.5-41.3-18.5-24-24.3-55.5-25.6-85.9-.7-16-.1-32.7,6.9-47C3767.2,4220.8,3799.5,4205.2,3832.6,4202.5Z" transform="translate(0.5 0.5)"/><path class="cls-9" d="M3870.7,4314.6c1.3,1.5,2.5,3.4,2.3,5.3-.2,2.4-2.5,4.1-4.7,4.8a13.87,13.87,0,0,1-10.2-1,19.93,19.93,0,0,1-7.7-7c-3.8-5.5-.5-11.5,6.2-12C3862,4304.3,3867.6,4310.8,3870.7,4314.6Z" transform="translate(0.5 0.5)"/><path class="cls-8" d="M2796.8,3906.5c31.6,24.4,52.8,59.9,67.6,97,8.7,21.8,15.5,45.4,12.2,68.6-2.9,20.5-13.6,39.3-27.8,54.3a129.16,129.16,0,0,1-162.7,20.5c-37.2-23.4-60.5-65.6-65.8-109.2-5.3-43.3,5.9-87.6,26.4-125.6,7.4-13.7,18.9-27.8,34.9-31.2a160.4,160.4,0,0,1,50.8-1.8C2755.7,3882.2,2778.1,3892,2796.8,3906.5Z" transform="translate(0.5 0.5)"/><path class="cls-9" d="M2763.1,4029.4c-.7,6-3.9,11.9-9,15.1a18,18,0,0,1-21.9-2.8c-9.5-10-12.7-35.1,3-41C2751.4,3994.6,2764.6,4015.4,2763.1,4029.4Z" transform="translate(0.5 0.5)"/><line class="cls-9" x1="2753.3" y1="4017.5" x2="3115.3" y2="3749.5"/><path class="cls-8" d="M3074.7,3608.5a125.2,125.2,0,0,1,19.3,1.3c28.2,4.4,53.9,19.7,74.7,39.2,23.9,22.3,42.4,50.9,50.1,82.7a144.92,144.92,0,0,1-16.9,108.4c-9,14.8-21.1,28.3-36.9,35.3-16.2,7.2-34.8,7-52.3,4.1a182,182,0,0,1-152-189.1c1-20,6.3-40.9,22.4-54.3,14-11.6,33.1-15.8,50.1-20.9A153.21,153.21,0,0,1,3074.7,3608.5Z" transform="translate(0.5 0.5)"/><path class="cls-9" d="M3123.8,3746.8c.3,7.1-4.4,13.7-10.5,17.4a26.88,26.88,0,0,1-22.8,2.1c-14.7-5.4-26.6-32.3-6.6-38.8C3097.1,3723.2,3123.2,3730.4,3123.8,3746.8Z" transform="translate(0.5 0.5)"/></g><g id="arm_left" data-name="arm left"><path id="arm" class="cls-3" d="M3005.9,2974.9c-10.7,1.4-23.2,2.2-30.7-5.6-7.2-7.5-6.2-19.4-4.8-29.7,8.4-59.6,14.7-86.3,23.1-145.9,105.9,23.4,216.3,20.8,323.3,3.3s211-49.9,313.4-85.7c24.8,44.3,51.5,101.5,54.9,153,1,15.5-9.7,14.3-23.8,18.8s-28.3,8.8-42.5,12.9q-41.25,12-83,22.3c-112.4,27.9-226.5,44.2-342,50.7C3122.8,2973,3069.6,2966.7,3005.9,2974.9Z" transform="translate(0.5 0.5)"/><g id="scissors"><path class="cls-10" d="M2458.6,2965.7c-74,5.1-149.5,10.1-221.5-7.8-52.6-13.1-101.3-38-149.5-62.7-76.6-39.3-153.6-78.8-223.6-128.8-40.5-29-81.2-66.1-88.1-115.4l520.4,95c51.9,9.5,104,19,156.8,21.3,90.4,3.9,185.3-12.7,268.4,23,11.3,4.9,22.9,11.4,28.1,22.4,10.2,21.6-8,49.1-15.7,68.9-6.3,16.3-12.1,24.7-27.7,33-47,25.2-101.4,36.1-153.8,42.8C2521.3,2961.2,2490,2963.5,2458.6,2965.7Z" transform="translate(0.5 0.5)"/><path class="cls-10" d="M1801.2,2423.5c104.5-34.4,211.6-69.3,321.5-66.1,94.4,2.7,185.9,33.5,272.1,72,113.6,50.7,221.3,115.6,315.9,196.5,22.1,18.9,44,39.4,55.8,66,8.1,18.3,16.6,71.7-12.8,77-21.6,3.9-61.6-28.6-80-38q-100-50.85-203.8-93.9c-138.4-57.7-280.6-105.9-424.4-147.9Q1924.15,2453.85,1801.2,2423.5Z" transform="translate(0.5 0.5)"/><path class="cls-10" d="M2746.1,2735c8,3.7,11.5,13,14.3,21.3,3.9,11.7,7.6,25.3,1.1,35.8-5.4,8.7-16.2,12.3-26.3,14.4-14.9,3.2-32.4,4-43.4-6.5-9.1-8.7-10.9-23.3-6.3-35,3.9-10.1,12.8-20.8,23-25.1C2718.3,2735.6,2736.2,2730.4,2746.1,2735Z" transform="translate(0.5 0.5)"/><path class="cls-11" d="M2910.6,3167.5c-23.3,0-41.6-3.7-57.8-11.7-21.4-10.6-37.1-28.1-50.8-45.4-54.1-68.2-83.4-137.2-87.3-205.1-1.6-29,2.1-55.2,11.1-78,4.3-11,8.9-21.5,16.6-29.7a38.49,38.49,0,0,1,28.4-12.6,46.23,46.23,0,0,1,15.6,2.8c21.9,7.7,43.4,17,64.1,26l4.9,2.1c15.4,6.7,31.8,11.2,49.1,16,14.2,4,28.9,8,43.4,13.5l15,5.7h.1c19.3,7.4,37.5,14.4,56.4,19.3,4.6,1.2,10,2.1,15.8,3,17.3,2.7,38.9,6.1,54.4,22.3,9,9.3,13.5,20.7,16.7,30.6,14.5,44.3,10.6,87.3-12.3,135.4-13,27.4-34.9,50.1-54.5,68.8-27.8,26.4-64.7,32.5-90.1,34.7l-2.3.2C2935.8,3166.4,2923.3,3167.5,2910.6,3167.5Zm-144-334.4c-1.5,3.3-3,7-3.7,8.9-6.9,17.3-9.6,37.9-8.3,61.1,3.4,59.5,29.9,120.9,78.7,182.5,10.8,13.7,22.8,27.3,37.2,34.4,10.6,5.2,23.2,7.6,39.7,7.6,10.7,0,21.7-1,33.3-2l2.4-.2c30.8-2.7,51.8-10.3,66-23.9,17-16.1,35.7-35.6,46-57,18.7-39.2,21.8-70.8,10.4-105.7-2.6-7.9-4.9-12.5-7.6-15.3-5.7-5.9-16.3-8-31.7-10.4a183.33,183.33,0,0,1-19.6-3.8c-21.1-5.5-41.2-13.2-60.7-20.7l-.5-.2c-4.8-1.8-9.6-3.7-14.3-5.5-12.9-4.8-26.1-8.5-40-12.4-17.9-5-36.4-10.1-54.3-17.9l-4.9-2.1c-18.1-7.8-36.7-15.9-55.3-22.7l-8.7-3.2Z" transform="translate(0.5 0.5)"/><path d="M2770.7,2795a37.09,37.09,0,0,1,12.3,2.2c21.6,7.6,42.9,16.8,63.5,25.8l4.9,2.1c16.1,7,32.8,11.6,50.4,16.5,14,3.9,28.4,7.9,42.5,13.2,4.9,1.9,10,3.8,14.8,5.6l.2.1c19.6,7.5,38,14.6,57.5,19.6a166.85,166.85,0,0,0,16.7,3.1c15.9,2.5,35.6,5.6,48.7,19.3,7.6,7.9,11.4,17.5,14.4,26.8a152.73,152.73,0,0,1,7.5,62c-1.9,21.1-8.2,42.6-19.3,65.9-12.3,25.9-33.4,47.8-52.4,65.9-11.3,10.7-24.9,18.6-41.7,24-16.1,5.2-31.9,7.1-42.4,8l-2.3.2c-11.4,1-23.3,2.1-35.5,2.1-21.7,0-38.6-3.4-53.4-10.7-19.7-9.7-34.4-26.2-47.4-42.6-52.8-66.6-81.4-133.6-85.1-199.4-1.6-27.5,1.9-52.4,10.4-73.8,4.1-10.4,8-19.6,14.5-26.5,6-6.2,13.1-9.4,21.2-9.4h0m139.5,342.5c11.2,0,22.9-1,34.1-2l2.3-.2c33.2-2.9,56.1-11.4,72.1-26.6,17.6-16.8,37.1-37,48.1-60,19.6-41.2,23-76.1,10.9-113.1-3.1-9.6-6-15.1-9.9-19.1-7.9-8.2-19.9-10.6-37.4-13.4q-9.45-1.35-18.6-3.6c-20.5-5.3-40.4-13-59.6-20.3l-.4-.2c-4.7-1.8-9.6-3.7-14.4-5.5-13.3-5-26.7-8.7-40.9-12.6-17.5-4.9-35.7-9.9-53-17.4l-4.9-2.1c-18.2-7.9-37-16-55.8-23l-17.4-6.4-7.7,16.9c-1.6,3.6-3.2,7.5-3.9,9.4-7.4,18.7-10.4,40.7-9,65.3,3.5,61.6,30.7,124.9,80.8,188.1,11.6,14.6,24.5,29.2,40.6,37.1,11.9,5.9,25.9,8.7,44,8.7M2770.8,2775a48.45,48.45,0,0,0-35.7,15.7c-8.9,9.4-13.9,20.9-18.6,32.9-9.5,24.1-13.5,51.8-11.8,82.3,4,70,34.1,140.9,89.4,210.7,14.5,18.2,31,36.7,54.3,48.1,20.3,10,41.9,12.8,62.3,12.8,13.1,0,25.7-1.1,37.2-2.1l2.3-.2c26.8-2.4,66-8.8,96.1-37.4,20.3-19.3,42.9-42.9,56.6-71.8,24.1-50.5,28.1-95.9,12.8-142.8-3.6-10.9-8.6-23.6-19-34.4-17.8-18.6-42.2-22.4-60-25.2-5.5-.9-10.7-1.7-14.8-2.8-18.4-4.8-36.3-11.7-55.4-19-5-1.9-10.1-3.9-15.1-5.8-14.9-5.6-29.8-9.7-44.2-13.7-17-4.7-33-9.2-47.8-15.6l-4.9-2.1c-20.9-9.1-42.5-18.4-64.8-26.3a55.72,55.72,0,0,0-18.9-3.3Zm139.4,342.5c-13,0-25-1.6-35.3-6.6-12.6-6.2-23.7-18.9-33.8-31.6-47.5-60-73.3-119.5-76.5-176.9-1.2-21.7,1.3-40.8,7.6-56.8.7-1.8,2.1-5.3,3.5-8.4,18.3,6.7,36.8,14.7,54.8,22.5l4.9,2.1c18.6,8.1,37.4,13.3,55.6,18.4,13.8,3.8,26.8,7.4,39.2,12.1,4.9,1.8,9.8,3.7,14.7,5.6,19.7,7.6,40.1,15.4,61.7,21,7,1.8,13.9,2.9,20.6,4,9.9,1.6,22.3,3.5,26.1,7.5,2.3,2.4,4.6,9.3,5.3,11.5,10.5,32.2,7.6,61.6-9.9,98.3-9.5,20-27.5,38.6-43.8,54.1-12.5,11.9-31.6,18.6-60,21.2l-2.4.2c-11.1.9-22,1.9-32.3,1.8Z" transform="translate(0.5 0.5)"/><path class="cls-11" d="M2996.8,2879.3a349.73,349.73,0,0,1-79.6-9.2,365.16,365.16,0,0,1-82.1-29.8c-26.9-13.6-54.6-29.2-74-50.2-11.8-12.7-11.1-30.2-10.6-41.7v-.2c0-1.2.1-2.3.1-3.3a178.86,178.86,0,0,1,50.9-120.1c22.8-22.9,51.8-39.3,86.2-49a258.64,258.64,0,0,1,69.5-9.2c9.5,0,19,.5,28.4,1.4a317.71,317.71,0,0,1,108.3,31c16.5,8.1,40.1,21.5,54,44.4,19.9,32.7,14.1,70.9,6.6,107.2-5.6,27.1-13.4,64.1-38.4,90.1-22.3,23.1-55.2,35.6-100.6,38.1-6.3.3-12.5.5-18.7.5Zm-39.7-272.6a218.81,218.81,0,0,0-58.6,7.7c-27.7,7.8-50.8,20.8-68.6,38.7a135.85,135.85,0,0,0-33.9,58.3,138.58,138.58,0,0,0-5.3,34.5c0,1.3-.1,2.7-.1,4.1-.1,2.6-.3,6.4-.1,9.2l.2,3.9,2.8,2.7c15.4,15.2,38.9,28.1,59.9,38.7a327.07,327.07,0,0,0,73,26.5,310.84,310.84,0,0,0,70.6,8.1h0c5.5,0,11-.1,16.5-.4,34.4-1.9,59.3-10.6,74-25.9,15.8-16.4,21.8-40.6,28-70.5,6.2-29.7,10.7-58-1.6-78.3-8.5-13.9-25.4-23.3-37.4-29.2a279.73,279.73,0,0,0-94.8-27.1c-8.3-.6-16.5-1-24.6-1Z" transform="translate(0.5 0.5)"/><path d="M2957.1,2576.7h0c9.2,0,18.3.5,27.4,1.4a310.28,310.28,0,0,1,105,30c15.4,7.5,37.3,19.9,49.9,40.6,18,29.6,12.8,64.2,5.3,100-5.7,27.3-12.8,61.3-35.8,85.2-20.5,21.2-51.2,32.7-94,35-6,.3-12.1.5-18.1.5a342.32,342.32,0,0,1-77.4-8.9,352.59,352.59,0,0,1-79.8-28.9c-26.1-13.2-52.8-28.2-71.1-48-9-9.7-8.4-24.1-8-34.5v-.2c0-1.2.1-2.4.1-3.5a168.59,168.59,0,0,1,48-113.3c21.6-21.6,49.1-37.2,81.8-46.4a242.2,242.2,0,0,1,66.7-9m-174.7,192.6a20.12,20.12,0,0,0,10.7,10c15.9,13.4,36.7,24.8,55.5,34.3a331,331,0,0,0,75.3,27.3,319.13,319.13,0,0,0,72.9,8.4c5.7,0,11.4-.2,17-.5,37-2,64.1-11.7,80.7-28.9,17.6-18.3,24.1-43.8,30.6-75.4s11.4-62.1-2.8-85.5c-9.8-16.1-28.4-26.6-41.6-33a288.2,288.2,0,0,0-98.2-28,241.94,241.94,0,0,0-25.5-1.3,226.88,226.88,0,0,0-61.3,8.1c-29.3,8.2-53.9,22.1-73,41.3a148.05,148.05,0,0,0-42.1,99.6c0,1.3-.1,2.6-.1,4-.1,3.6-.3,7.1-.1,10.1l.4,7.8,1.6,1.7m174.7-212.6a266.72,266.72,0,0,0-72.2,9.6c-36,10.1-66.5,27.4-90.5,51.5a187.69,187.69,0,0,0-53.8,126.9c0,1.1-.1,2.2-.1,3.4-.5,12.4-1.3,33.1,13.2,48.9,20.5,22.2,49,38.3,76.8,52.3a378,378,0,0,0,84.3,30.6,363.58,363.58,0,0,0,81.9,9.4h0c6.4,0,12.8-.2,19.2-.5h0c48.1-2.6,83.1-16.1,107.3-41.1,27-28,35.1-66.7,41-95,8-38.3,14-78.7-7.8-114.5-15.3-25.1-40.5-39.5-58.2-48.1a328.43,328.43,0,0,0-111.7-31.9,289.43,289.43,0,0,0-29.4-1.5Zm39.7,272.6a302.89,302.89,0,0,1-68.4-7.9,314.2,314.2,0,0,1-70.8-25.7c-20.4-10.3-43-22.7-57.3-36.9-.1-2.4,0-6,.1-8.4.1-1.5.1-2.9.1-4.3a128.5,128.5,0,0,1,4.9-32,124.49,124.49,0,0,1,31.4-54c16.6-16.7,38.3-28.8,64.3-36.1a206.85,206.85,0,0,1,55.9-7.4,231.15,231.15,0,0,1,23.5,1.2,270.15,270.15,0,0,1,91.4,26.1c10.9,5.3,26.2,13.8,33.3,25.4,10.4,17.1,6.1,43.4.3,71-5.9,28.3-11.5,51.1-25.4,65.6-12.9,13.4-35.6,21.1-67.4,22.8h0c-5.3.4-10.6.5-15.9.6Z" transform="translate(0.5 0.5)"/></g><g id="fingers"><path class="cls-12" d="M2875.2,2990.6c-7.1-2.3-15.1-5.8-17.1-13-1.6-5.8,1.6-12.1,6.2-16s10.6-5.7,16.4-7.3c48.9-14,99.4-21.1,149.8-28,13-1.8,27.3-3.2,38.1,4.2a27.43,27.43,0,0,1,9.9,30.9c-7.5,20.6-44.7,27.8-63,32.6a256.4,256.4,0,0,1-89.8,7A237.32,237.32,0,0,1,2875.2,2990.6Z" transform="translate(0.5 0.5)"/><path class="cls-12" d="M2883.8,2934.8c-13.6-.4-29.4-2.6-36.3-14.3-5.4-9.3-2.6-21.8,4.2-30.1s16.9-13.3,27.1-17.1c30-11.2,62.7-14.2,94.7-11.9s63.4,9.9,94.1,19.1c4.6,1.4,9.3,2.9,13.1,5.8s6.6,7.6,6,12.4c-.7,5.2-5.1,9.1-9.5,11.9-18.4,12-41.2,12.8-62.4,16.1a704.6,704.6,0,0,1-83.4,7.9C2915.5,2935.3,2899.6,2935.3,2883.8,2934.8Z" transform="translate(0.5 0.5)"/><path class="cls-12" d="M3053.2,2851.8a343.37,343.37,0,0,1-128.1-25.8c-9.9-4.1-20-8.9-26.9-17.1-4.3-5.2-7.3-12-5.9-18.6,1.7-7.9,9.2-13.4,17-15.2s16-.5,23.9.9c52.2,8.9,106.4,22.6,144.9,58.9,2.7,2.6,5.6,6.1,4.5,9.7-1,3-4.2,4.4-7.2,5.4a66,66,0,0,1-33.6,1.3" transform="translate(0.5 0.5)"/><path class="cls-12" d="M2958.7,2767.2c-4.4-1.1-9.1-1.9-13-4.3s-7.2-6.5-6.8-11.1c.6-7.6,9.6-11.1,17.1-12.8,34.2-7.9,66.7-9.7,100.9-1.9,18.9,4.3,37.6,14.6,48,31,5.7,9,4.8,20.5,0,30-6.2,12.4-16.7,17.3-33,15-12.8-1.8-16.4-5.8-28.9-10.4C3014.3,2792.1,2988.6,2774.3,2958.7,2767.2Z" transform="translate(0.5 0.5)"/></g></g><path id="dress_sleeve" data-name="dress sleeve" class="cls-2" d="M4289.8,2395.8c-.3-31.9,2-65.8-17.4-91.1-14.8-19.3-15-31.6-37.7-40.2a265.43,265.43,0,0,0-95.8-17.3c-9.9.1-20.1.7-29.3,4.5-9.9,4.1-18,11.6-25.8,18.9-19.8,18.5-39.8,37.3-54.3,60.1-24.4,38.4-31.3,85.4-32.4,131s3.1,91.2-1.6,136.5c-1.7,16.2-3.4,35.5,9.1,46,10.7,9,26.6,6.8,40.3,3.8,47.6-10.6,95.3-25.9,133.7-55.9,26-20.4-59.9-73.6-41.9-101.1,8.2-12.5,81.9,1.3,91.9-9.9,8.1-9.1.2,23.4,23.1,16.9C4275.6,2491.3,4290.4,2457,4289.8,2395.8Z" transform="translate(0.5 0.5)"/><g id="arm_right" data-name="arm right"><g id="arm-2"><path class="cls-13" d="M4552.8,1661c-6.4-12.8,3.7-31.1,18.4-50.3l-98.9-55c-16.8,32.4-33.1,65.1-50.2,97a1778.87,1778.87,0,0,1-195.6,292.1c-102.1,124-222.8,237-288.9,383.4-15.1,33.4-24,79.6,5.7,101.1,14.6,10.6,32.7,10.3,49.5,14.2,19,4.5,28.1,19.6,44.9,25.6,29,10.3,63.8-58.1,79.1-78.2l158.7-209.1,87-114.7c15.7-20.7,32.1-41.9,54.9-54.2,46.6-25.1,103.6-5.8,156.5-7,33.8-.8,69-11.5,91.4-36.7,26.1-29.4,30.1-71.8,32.8-111.1,3.8-54.5,6.4-113.6-24.3-158.8C4659,1677.4,4564.7,1684.6,4552.8,1661Z" transform="translate(0.5 0.5)"/><path d="M4617.8,1656.4c-12.3-1.8-31.5-4.5-40.9-7.8,1.2-3,3.6-7.8,8.6-15.1q3.6-5.1,7.8-10.5l-44.2-24.5c-3.5,4.7-6.7,9.4-9.6,14-5.4,8.6-21.6,34.8-9,59.8,12,23.7,43.6,28.3,80.2,33.5,13.8,2,36.5,5.3,43.4,9,24,36.9,22.8,85.9,19,141.5-2.7,39.3-6.6,73.7-26.6,96.2-15.4,17.3-42,27.6-73.3,28.3-15.3.3-31.2-1.2-48.1-2.8-39.9-3.9-81.1-7.9-119.7,12.8-28,15.1-47.4,40.6-63,61.1h0l-245.6,323.9c-3.7,4.9-7.9,11.4-12.7,18.9-6.9,10.7-15.5,24.1-24.1,34.7s-13.8,14.1-16,15.3c-3.3-1.6-6.8-4.2-10.9-7.4-8.5-6.4-19-14.4-34.6-18.1-5.6-1.3-10.9-2.2-16.1-3-10.1-1.6-18.8-3-24.5-7.1-15.3-11.1-9.8-43.4,2.4-70.5,47.9-106.1,127.9-197,205.3-284.9,26.6-30.2,54-61.4,80-92.9a1811.54,1811.54,0,0,0,198.3-296.2c11-20.5,21.8-41.6,32.2-62,5.9-11.5,11.8-23.1,17.8-34.7l-43.7-24.3q-9.45,18.15-18.6,36.3c-10.3,20.2-21,41-31.7,61.2a1756.24,1756.24,0,0,1-192.8,288c-25.4,30.9-52.6,61.8-78.9,91.6-79.9,90.7-162.4,184.4-213.4,297.4-7.1,15.7-15.6,39.6-16.1,64.7-.8,36.8,15.9,56.6,30,66.9,15.3,11.1,32.3,13.8,45.9,16,4.5.7,8.8,1.4,12.6,2.3,5,1.2,9,4.1,15.8,9.2s15.2,11.6,26.5,15.6a44,44,0,0,0,14.4,2.5,50.34,50.34,0,0,0,23.4-6.1c8.2-4.3,16.3-10.9,24.7-20.1,13.2-14.4,24.9-32.6,34.3-47.2,4.1-6.4,7.9-12.4,10.5-15.7l245.7-323.8h0c14-18.4,28.4-37.4,46.8-47.3,25.1-13.5,57.2-10.4,91.1-7.1,17.6,1.7,35.8,3.5,54.1,3.1,45.7-1.1,84.6-17.1,109.5-45.1,32.9-37.1,36.5-88.4,39.1-126,3.5-50.7,8.3-120.2-28.5-174.6C4681.1,1665.5,4651.8,1661.2,4617.8,1656.4Z" transform="translate(0.5 0.5)"/></g><path id="comb" class="cls-14" d="M4917.1,1412.7c-63,11.3-111,67.8-127.7,129.6s-6.9,127.8,10.3,189.5c24.6,88.3,64.1,171.8,94.5,258.3s51.9,178.9,38.6,269.6-67,179.7-151.7,214.8-198.1.4-232.3-84.7c-31.7-78.6,7.7-165.5,32.2-246.6,57.6-190.6,32-394.9,10.1-592.8-37.5-338.8-61.8-687.9,33.8-1015.1,34.7-118.9,86.1-234.9,167-328.7S4985.6,42.9,5108.8,31c88.1-8.5,175.8-14.3,253.7,27.7,8.1,13.1,1.1,31.3-11.1,40.7s-28.1,12.2-43.3,14.8l-266.7,44.9c18.7-3.1,41.8,1,60.6,3.1a505.51,505.51,0,0,1,61,10.7c38.9,9.3,76.5,23.3,113.5,38.5,3.9,1.6,7.9,3.3,11.1,6s5.7,6.7,5.7,10.9c-.1,6.8-6.3,11.9-12.4,14.9-14,6.9-29.7,8.6-44.8,11.7-15.4,3.2-29.7,9.4-45.4,11.7a269.08,269.08,0,0,1-119.6-9c-5.7-1.8-16.3-8.4-22-8.1a446.46,446.46,0,0,1,181,27c15.4,5.7,32.4,14.4,36.2,30.4,6,25.2-23.9,43.1-48.8,50.2a551.28,551.28,0,0,1-211.9,17.2,997.19,997.19,0,0,1,196.7,13.3c23.6,4,53.6,18.1,48.4,41.4-3.8,16.7-23.7,23.3-40.6,26.2a561.64,561.64,0,0,1-187-.1c59.4,9,115,30.6,171.7,49.2l23.1,7.6c5.8,1.9,11.7,3.9,16.1,8.1s6.6,11.2,3.6,16.5c-2.2,3.7-6.4,5.6-10.5,7.2a241.88,241.88,0,0,1-85.3,16.6c-13.4.2-26.7,2.8-40.3,2.9a291.24,291.24,0,0,1-93.6-14.5l132.4,24c24.6,4.5,56,17.5,52.8,42.3-3.2,24.6-36.3,29.5-61,28L4960,632.4a1001.35,1001.35,0,0,1,173,9.6c27,3.8,61,17.6,58.6,44.7-1.7,18.9-21.3,30.5-39.2,36.8-46.8,16.6-101.4,27.7-149.5,15.6,23.7.8,19,6,75,18,16.6,3.6,32.4,3.7,46.3,10.6,12.5,6.1,26.7,10.3,36.2,21,5.7,6.4,9.1,14.5,11.7,22.6,1.5,4.5,2.7,9.3,1.5,13.9-1.8,7.1-8.8,11.4-15.4,14.5-20.9,9.6-43.9,13.5-66.6,15.7s-45.9,4.8-68.7,5.9c-19.4,1-38.9,1-58.4.2l183.3,46.4c10.3,2.6,21.9,6.2,26.5,15.8,5.1,10.6-1.4,23.7-11.3,30.1s-22,7.6-33.7,8.7l-192.8,17.9a266.49,266.49,0,0,1,83.8,15.9,279.2,279.2,0,0,1,39,17.7c11,6.1,23,6.9,34.6,12.1a118.1,118.1,0,0,1,22.4,13.3c5.2,4,10.6,9.7,9.5,16.3-1,6.3-7.5,10-13.3,12.6-26.9,11.8-55.9,18.3-85.1,20.8-7.3.6-14.7,1-22,1.1-6.3.1-13.2-1-19.3.7-14,4-28.6,5.9-43.1,8-13.2,1.9-26.4,3.4-39.7,4.8a487.42,487.42,0,0,1,230.7,32.7c8.2,3.3,17.8,9.4,16.4,18.1-.9,5.8-6.5,9.6-11.6,12.5a534.12,534.12,0,0,1-230.4,69,816.86,816.86,0,0,1,207.5,27.3c20.5,5.4,45,16.9,44.9,38.2,0,22.3-26.6,33.2-48.2,38.3C5049.7,1354.4,4980.7,1401.3,4917.1,1412.7Z" transform="translate(0.5 0.5)"/><g id="thumb"><path class="cls-13" d="M4569.8,1612.5c19.8-26.4,48.8-54.8,56.1-73,12.4-31.1,33.1-58,53.1-84.8,14.5-19.4,29.1-39.9,33.6-63.8s-4.4-51.9-26.4-62.1c-28.1-13-59.8,7.9-81.6,29.9-56.7,57.1-96.3,127.4-133.5,199.3Z" transform="translate(0.5 0.5)"/><path d="M4493,1570c36.1-69.7,75.1-139.2,129.4-193.8,13.6-13.7,31.5-26.4,45.5-26.4a19.58,19.58,0,0,1,7.9,1.6c9.6,4.4,15.1,20.1,12.4,34.9-3.3,17.8-15.1,34.7-29.1,53.4l-3,4c-19.8,26.5-40.3,53.9-53.3,86.5-3.1,7.7-16.9,23.8-27.9,36.8-9.3,10.9-18.9,22.1-27,33.3l44.2,24.4c6.3-8.2,13.7-16.8,20.8-25.2,16.2-19,30.2-35.3,36.4-50.7,10.6-26.5,28.2-50.1,46.9-75.1l3-4c13.7-18.3,32.4-43.5,38.1-74.1,6-32.3-5.9-73.4-40.5-89.4-19.3-9-41.4-8.4-63.9,1.7-19.3,8.7-35.6,22.8-45.9,33.3-59,59.4-100,132.1-137.6,204.8Z" transform="translate(0.5 0.5)"/></g><g id="fingers-2"><path class="cls-12" d="M4840.2,1591.8c12.1.7,26.1,3,32.2,13.5,5.2,9,2.2,21-4.6,28.9s-16.6,12.4-26.3,16.1c-62.2,24-130.7,24.3-197.4,24.3-10,0-21.6-.8-27.1-9.2-22-33.1,66.6-53.4,83-58.1A425.87,425.87,0,0,1,4840.2,1591.8Z" transform="translate(0.5 0.5)"/><path class="cls-12" d="M4835.7,1673.3c13.1,1.7,26.7,4.7,36.5,13.5s14.1,24.9,6.1,35.4c-5.9,7.7-16.2,10.1-25.7,12.1l-156.8,31.9c-11.7,2.4-23.8,4.8-35.4,2.4s-23-10.9-24.8-22.6c-4.9-30.7,54.9-50.4,76.1-58.2A261.7,261.7,0,0,1,4835.7,1673.3Z" transform="translate(0.5 0.5)"/><path class="cls-12" d="M4870.6,1753.4c7.7-1.1,15.7-2.1,23.3-.5s15.1,6.4,17.8,13.7c5.2,13.7-7.5,27.4-19.8,35.3-26.2,17-56.2,27.2-85.9,37.3-39.8,13.4-81.7,27.1-123,19.3-8.7-1.6-18.1-4.9-22.5-12.6C4630.1,1792.1,4844.3,1757.2,4870.6,1753.4Z" transform="translate(0.5 0.5)"/><path class="cls-12" d="M4836.6,1853.6c10.6-2.6,21.5-5.2,32.5-4.4s22.1,5.6,28,14.8c8.4,13.3,3,31.7-8,42.8s-26.5,16.5-41.5,21.2c-30.4,9.6-61.5,17.7-93.4,19.7-13.1.8-26.8.4-38.6-5.3s-21.3-18-20.1-31.1c2.2-24,29.7-31.5,48.8-35.4C4775.2,1869.8,4805.9,1861,4836.6,1853.6Z" transform="translate(0.5 0.5)"/></g></g><g id="head"><path id="head-2" class="cls-3" d="M3411.3,2537.6c-40.5-15.8-77.4-44.2-110.4-73.5a1241.41,1241.41,0,0,1-116-117.9q-26.7-30.9-51.3-63.6c-15.7-20.9-32.7-40.9-40.7-66-9.7-30.7-15.5-64.7-3.7-94.6,10.7-27.4,34.3-47.4,57-66.2l259.3-214.6c19.1-62.9,84.9-104.6,150.5-107.1s129.2,28.9,177.4,73.5,83,101.7,114.1,159.6c25.4,47.2,48.9,96.2,58.7,148.8,10.4,55.8,5,114.1,20.1,168.8,14.6,52.8,47.2,98.4,77.6,144s59.7,94.3,66.1,148.7-16.1,115.9-65.9,138.9c-50.3,23.2-110.1,1-155.7-30.4-39.5-27.2-73.2-61.9-107.1-95.6-27.7-27.5-47.3-60.2-89.2-66.7-29.4-4.6-59.3,2-88,9.6s-57.6,16.5-87.3,16.8C3454.1,2550.6,3432.2,2545.8,3411.3,2537.6Z" transform="translate(0.5 0.5)"/><g id="face"><path id="nose" class="cls-15" d="M3455,2202.8a643.63,643.63,0,0,0,43.1,134.8c3.9,8.8,8.6,18.2,17.1,22.8,10.9,5.9,24.6,2.1,35.6-3.6a118.42,118.42,0,0,0,56.3-63.5" transform="translate(0.5 0.5)"/><g id="mouth"><path class="cls-15" d="M3706.7,2379.3c24.7-24.3,38.4-58.5,41.4-93s-3.8-69.4-15.5-102" transform="translate(0.5 0.5)"/><path class="cls-15" d="M3697.5,2155.4c19.2,16.8,49.2,20.1,71.5,7.7" transform="translate(0.5 0.5)"/></g><path id="eye_right" data-name="eye right" class="cls-16" d="M3592.4,2012c1.9,3.5,3.3,7.5,2.7,11.4-1.1,7.4-8.4,12.1-15.1,15.2-8.5,4-17.5,7.3-26.9,7.2s-19.1-4.5-23.6-12.6c-7.1-12.8-.2-39.1,14.9-44.1C3562.1,1983.3,3584.4,1996.8,3592.4,2012Z" transform="translate(0.5 0.5)"/><path id="eye_left" data-name="eye left" class="cls-17" d="M3307,2207.5c1.2,9.2-4.6,18.7-13,22.4s-18.9,2-26.2-3.8c-11.4-9.1-18-33.8-.7-40.4C3282.2,2179.9,3304.8,2191,3307,2207.5Z" transform="translate(0.5 0.5)"/></g></g><g id="hair"><path class="cls-18" d="M3851.2,2014c-34.4-81-76.1-160.2-135.2-225.4s-137.5-115.8-224.5-129c-66.9-10.2-135.8,2-199.1,25.9-115.4,43.6-217.2,129.8-265.7,243.2S2989,2182.6,3066,2279" transform="translate(0.5 0.5)"/><path class="cls-18" d="M3705.9,1761.4c-13.6-39.4-51.9-69-93.4-72.2,6.2,9.3.9,23-8.8,28.6s-22,4.6-32.6,1-20.3-9.5-30.7-13.7c-39.9-16-84.9-4.7-126.3,6.7-20,5.5-40.2,11.1-58.5,20.8-19.3,10.2-35.9,24.7-52.4,39-24.6,21.4-51.5,48.6-47.1,80.9,1.2,8.6,4.5,17.5,1.2,25.5-2.9,7-10.1,11.1-16.9,14.6l-48.9,25.6c-7.9,4.1-18.4,8-25,2-4-3.6-4.8-9.4-5.3-14.8-2.7-27-5.4-53.9-8.2-80.9-25-22.2-63.5-28-93.9-14s-51.2,46.8-50.6,80.3c-48.6,86.4-68.9,200.2-50.6,297.6" transform="translate(0.5 0.5)"/><path class="cls-19" d="M3914.7,2047.4c-18-121.8-78.6-237.7-171.4-318.7s-217.5-125.6-340.4-117.6-242.1,69.8-316.2,168.2c-72,95.7-98.9,218.4-105,338-3.3,64,.2,132.7,37.3,185" transform="translate(0.5 0.5)"/><path class="cls-19" d="M3091.2,2241.9c-37.8-98.7-42.5-209.8-13.2-311.3,12-41.3,29.9-81.9,59-113.6,27.1-29.5,62.7-50,99.3-66.3,75.9-33.6,160.5-50.6,242.8-39.6s162,51.6,212.5,117.5" transform="translate(0.5 0.5)"/><path class="cls-19" d="M3139.8,2197a761.14,761.14,0,0,1-5.3-226.5c4.7-37,12.6-74.8,33.3-105.8,16.7-24.9,40.8-44,66.7-59,79.2-45.9,178.8-54.9,264.9-24.1,33.2,11.9,64.2,29.3,95,46.5" transform="translate(0.5 0.5)"/><path class="cls-18" d="M3211.2,2138.7c-50.2-142.5-44.7-303.8,15.2-442.4" transform="translate(0.5 0.5)"/><path class="cls-19" d="M3242.6,2087.2c-29.8-95.2-13.1-197.7-1.7-296.8,4.3-36.6,7.8-73.6,19.1-108.7s31.2-68.7,61.9-89.1" transform="translate(0.5 0.5)"/><path class="cls-18" d="M3302.6,2041c-45.9-93.5-32.7-213.1,32.5-294.3" transform="translate(0.5 0.5)"/><path class="cls-19" d="M3408.4,1705.5a287.32,287.32,0,0,0-48.4,315.4" transform="translate(0.5 0.5)"/><path class="cls-19" d="M3425.1,1971.6a273.82,273.82,0,0,1,30.9-310.2" transform="translate(0.5 0.5)"/><path class="cls-18" d="M3478.2,1931c-23.5-72.2-7.9-155.8,39.9-214.7" transform="translate(0.5 0.5)"/><path class="cls-19" d="M3537.3,1878.8c-3.1-25-8.9-47.8-5.8-73.5,3.6-30.4,7.7-95.6,47.3-103.1" transform="translate(0.5 0.5)"/><path class="cls-19" d="M3787.1,1733.4a179.11,179.11,0,0,0-222.1-31.5" transform="translate(0.5 0.5)"/><path class="cls-19" d="M3736.2,1764.4c-11.2-38.4-38.9-70.3-71.2-93.9s-69.3-39.8-106-55.8c-22.8-10-45.9-20-70.5-24.1s-51.1-1.6-72,12" transform="translate(0.5 0.5)"/><path class="cls-19" d="M3661.9,1623.2c-38.3,4.5-77.3,9.2-112.6,24.7s-67.1,43.7-77.4,81" transform="translate(0.5 0.5)"/><path class="cls-19" d="M3584.6,1585.8c-32.9,27.8-66,55.8-94.1,88.5s-51.1,70.7-60.9,112.7c-9.4,40.6-6,83.6,6.8,123.3" transform="translate(0.5 0.5)"/><path class="cls-19" d="M3108.5,2219.3c2.6-63.9-12.6-127.2-16.9-191s4.3-133,46.7-181" transform="translate(0.5 0.5)"/><path class="cls-18" d="M3179.2,2186.7a301.88,301.88,0,0,1-13.4-166.2" transform="translate(0.5 0.5)"/><path class="cls-18" d="M3287.8,2072.2c-39.3-46.6-53.5-113.2-36.6-171.7" transform="translate(0.5 0.5)"/><path class="cls-18" d="M3403.7,2010.9c-20.3-25.9-29.7-59.1-31.2-91.9s4.5-65.6,12.5-97.5c9.5-38.2,22.3-76.2,44.3-108.8s54.5-59.5,92.9-68.4" transform="translate(0.5 0.5)"/><path class="cls-19" d="M3335,2032.8c-33.9-51.2-46.9-115.8-35.4-176.1,12.2-64.2,49.8-120.3,73.4-181.2" transform="translate(0.5 0.5)"/><path class="cls-18" d="M3519.1,1914.8c-11.6-8.6-17.7-23.1-19.1-37.5s1.3-28.8,4.5-42.9c3.1-13.7,7.4-28.4,18.7-36.9" transform="translate(0.5 0.5)"/><path class="cls-18" d="M3650,1838.4a369.52,369.52,0,0,0-92-68.5c-11-5.8-25.4-10.7-35-2.7" transform="translate(0.5 0.5)"/><path class="cls-18" d="M2971.8,2316.7c-33.1-66.5-45.4-142.2-42.4-216.5s20.9-147.3,45.7-217.3c10.8-30.6,23.1-61,41.6-87.6,27.9-40.2,68.9-70.1,113.1-91.2s91.9-33.9,139.4-45.5" transform="translate(0.5 0.5)"/><path class="cls-18" d="M3055.6,2226.7c-47.5-100.7-40.9-225,17-320.1" transform="translate(0.5 0.5)"/><path class="cls-18" d="M3753.2,1779.7a509.38,509.38,0,0,1,120.6,230.1" transform="translate(0.5 0.5)"/><path class="cls-18" d="M3746.4,1688.9c-35.3-61-95.4-107.2-163.4-125.8-31.4-8.6-67.5-10.7-94.1,8.1" transform="translate(0.5 0.5)"/><path class="cls-19" d="M3716.3,1664a303.54,303.54,0,0,0-136.6-89.8c-9.1-2.9-18.7-5.3-28.1-3.7s-18.5,8.4-20,17.8" transform="translate(0.5 0.5)"/><path class="cls-16" d="M3321.9,1604.5" transform="translate(0.5 0.5)"/><path class="cls-19" d="M3289.8,1548.6a342.64,342.64,0,0,1,64.1-379.6c16.4-17.1,34.6-32.5,49.6-50.8s27-40.3,28-64c1.2-27.7-12.9-54.2-32.2-74s-43.5-34-67.4-47.9" transform="translate(0.5 0.5)"/><path class="cls-18" d="M3476.3,1505.8c-11.9-26.7-7.3-58.8,7.3-84.1s37.9-44.6,63-59.5,52.2-26,78.5-38.8a666.32,666.32,0,0,0,244.2-204" transform="translate(0.5 0.5)"/><path class="cls-18" d="M3452.9,1521.4c-21.1-40.3-10.1-91.3,15.8-128.7s64.2-63.9,101.9-89.3,76.4-51.2,103.4-87.7c20.4-27.6,33.3-60.3,55.1-86.9a165.73,165.73,0,0,1,116.1-59.4" transform="translate(0.5 0.5)"/><path class="cls-19" d="M3345.8,1519.7a166,166,0,0,1,22.2-207.2c16.7-16.7,36.7-29.6,55-44.5,31.5-25.7,58.3-58.2,72.3-96.3,10.7-29.2,13.6-60.7,13-91.7-.9-40-8.9-82.6-36.8-111.3" transform="translate(0.5 0.5)"/><path class="cls-18" d="M3392.2,1515.9c-10.3-48.5-20.1-101.3,2.2-145.6,21-41.8,65.4-65.5,107.7-85.5s87.4-40.7,112.9-79.9a122.27,122.27,0,0,0,17.8-85.8c-8.3-48.9-45.8-88.9-55-137.7-1.8-9.8-2.4-20.1,1-29.4s11.7-17.4,21.6-18.1" transform="translate(0.5 0.5)"/><path class="cls-18" d="M3424.2,1521.5c-3-29-6-58.2-2.5-87.1s14.1-57.8,34.8-78.3c11-10.9,24.5-19.1,34.6-30.8,25.4-29.4,23.7-72.7,35.7-109.6,9.9-30.8,29.6-57.3,49.2-83q64-83.4,133.5-162.4" transform="translate(0.5 0.5)"/><path class="cls-18" d="M3381.1,1548.2c-13-61.1-25.7-125.8-5.1-184.8,10-28.7,27.5-54.1,42.1-80.8,49.3-89.7,67.1-196.2,49.9-297" transform="translate(0.5 0.5)"/><path class="cls-18" d="M3301.5,1464c-19.7-28.8-21.7-66.9-13.4-100.8s25.8-64.7,43.1-95c20.6-36,42.3-73.3,76.6-96.4,18.6-12.5,39.9-20.2,60.2-29.5a410.37,410.37,0,0,0,191.8-181.6" transform="translate(0.5 0.5)"/><path class="cls-19" d="M3321.5,1573c-12-60.3-14.9-122.9-3.8-183.4s36.4-119,76.7-165.4c23.4-27.1,51.5-49.7,77.1-74.7s49.5-53.1,61.6-86.8,10.6-73.9-11.1-102.4" transform="translate(0.5 0.5)"/><path class="cls-19" d="M3404.3,1541.7c3-46.7,6.2-93.6,16.4-139.3s27.6-90.5,56.7-127.2c26.3-33.3,61-58.6,94.1-85.1a1396.85,1396.85,0,0,0,169.3-160.6" transform="translate(0.5 0.5)"/><path class="cls-19" d="M3432.9,1549.9c10.2-48.7,20.6-98.1,43.1-142.5s58.8-84,106.1-99.5c20.7-6.8,42.7-8.7,63.6-14.8,40.3-11.7,74.9-38.4,102.6-69.9s49.2-67.9,70.5-104.1" transform="translate(0.5 0.5)"/><path class="cls-16" d="M3502.6,1527.4c-60.2,26.4-129.3,20-193.8,33-8.2,1.7-18.1,5.8-18.1,14.2,0,4.8,3.8,8.9,8.2,10.8s9.3,2,14.1,1.8c60.2-1.4,117.4-25,176.4-36.6,6.1-1.2,12.4-2.3,18.4-.8" transform="translate(0.5 0.5)"/></g><path id="dress" class="cls-20" d="M4501.8,3911.9c-109.8-22.4-213.1-68.5-315.4-114.3-134.7-60.3-271.9-122.2-380.9-221.7-68.5-62.6-124.7-139.1-200.6-192.5s-182.6-79.2-260.6-29c88.5-76.1,57.3-231.9,139-315.3,57.8-59,153.5-60.6,232.4-36.6s150.6,68.7,230,91.1c-76.6-44.4-137.2-115.9-168.2-198.8-48.1,41.5-127.9,18.3-167.7-31.2s-50.2-115.7-59.1-178.6a267.63,267.63,0,0,0,125.4-129.6l153,66.4c-.7-80.2-1.3-161.8,21.6-238.6s73.1-149.7,147.4-179.9c-6.7,74.6,21.8,151.7,75.5,203.9s131.5,78.6,205.9,69.8c-9.7,90.4,41.2,176.1,98.8,246.4s125.3,135.3,160.3,219.2c32.2,77.2,33.6,163,38.3,246.5,7.1,126,22.9,252.7,64.9,371.7,30.3,85.6,74.6,167.2,135.3,235.2,78.1,87.6-23.4,121-104.5,127.5C4615.5,3928.2,4557.8,3923.4,4501.8,3911.9Z" transform="translate(0.5 0.5)"/><path class="cls-21" d="M466.8,4090.1,333,4264.9c-64.3,84.1-175.1,70.4-246.4,7C50.9,4240.2,17.9,4196.2,0,4151l72.6-84.2c2.1,34.8,30.2,69.2,54.7,91.8,25.8,23.7,68.3,44.4,95.2,10.5l138-171.1c50-61.9,136-85.6,209.4-53.5q-118-100-230-206.6c-35.3-34.1-90.9-67.4-132.1-23.3-42.3,45.3,11.7,111,45.2,142.7q-50.4,25.5-101.2,50.3c-74.9-80.5-127.7-202.6-40.4-294.3,89.3-93.9,229.1-23.5,305.9,50q174.45,165.15,363.4,313.8l-61.4,86.4C641.9,4003,528.2,4009.8,466.8,4090.1Z" transform="translate(0.5 0.5)"/><path class="cls-21" d="M719.3,4134.9c25.3-36.2,77-34.2,109.7-9.8,33,24.6,50.3,74.5,26.4,111.2-24.3,37.4-76.5,36.3-109.5,11.8C712.3,4223,693.3,4172,719.3,4134.9ZM550.1,4648c-52-37.6-78.4-115.3-38.5-171.4l142.7-206.1q50,38,100.7,75L624.7,4543.2c-13.2,20,2.5,43.8,19.1,55.4,13.6,9.5,30.9,16.4,47.9,15.4-15.5,24.3-30.9,48.7-46.4,73C611,4685.5,577.4,4667.8,550.1,4648Z" transform="translate(0.5 0.5)"/><path class="cls-21" d="M1174.7,4915.9l-39.1,77.6c-33.9,2.2-68.6-11.5-97.4-28-55.9-32.1-88.3-106.4-54.4-166l57.1-103.1c16-27.4,4.9-58.5-20.7-74.7-32.7-20.8-71.5-10.8-97.1,16.5q-53.25,91.05-106.4,182.2-56.1-36.15-111.4-73.6l187.4-304.5q51.9,35.1,104.6,69.1c-5.9,10-11.7,20-17.6,30.1,37.3-12.4,79.9.7,112.1,20.5,62.7,38.5,100.3,120.2,64,189.5l-53.4,102c-11,21,6.2,43,23.9,52.8C1140.4,4913.9,1158.1,4918.1,1174.7,4915.9Z" transform="translate(0.5 0.5)"/><path class="cls-21" d="M1720.7,5179.3c-10.3,27.2-20.5,54.4-30.8,81.6-33.4,6.2-69.4-3.5-99.8-16.7-42-18.2-74.7-58.6-77.5-105.3-49.4,28.7-109.5,19.5-158.6-4.4-98.6-48.1-156-163.4-105.2-266.2,48.1-97.4,165.5-123,259.1-76.3,42.4,21.1,78.9,54.6,95.3,100.1l16.2-38.4q55.5,25.65,111.6,50.1l-87.9,222c-8.9,22.1,9.8,41.7,28.8,49.5C1686.9,5181.4,1704.7,5183.4,1720.7,5179.3Zm-185.6-125.9c9.6-22.7,19.1-45.3,28.7-68-.1-42.4-28.9-81-65.8-99.4-48.1-23.9-114-9.3-137.5,41.2-24.3,52.1,8,115,57.8,138.8,36.7,17.6,85.8,16.6,116.8-12.6Z" transform="translate(0.5 0.5)"/><path class="cls-21" d="M1738.4,5286.9l34.6-94.4c10.1,18.2,26.9,37.9,46.4,45.9,17.6,7.2,41.6,4.6,48.2-16,7.2-22.5-5.4-49.1-12.2-70.7-8.1-25.9-16.9-54.9-7.5-81.4,18.8-52.9,66.8-79.5,122-80.9q19.95,47.1,40.7,93.9c-20.8,1.3-41.4,9.8-47.9,31-6.7,21.8,6.8,48.2,13.2,69,9.4,30.2,16.1,62.3,6.1,93.4-21.4,66.4-94.4,87.6-155.5,64.1C1795,5328.6,1762.4,5311.6,1738.4,5286.9Z" transform="translate(0.5 0.5)"/><path class="cls-21" d="M3286.8,5555.1c-2.7,33.3-5.4,66.5-8.1,99.8-32,13.3-67.1,13.6-100.7,10.3-84-8.2-125.3-76.8-150.3-150-16.7-48.8-52.2-107.6-107.7-117.4-8.9-1.5-13.4-2.2-22.3-3.7-32.5,64.5-84.9,116.7-152.2,144.1-79.4,32.3-167.1,28.2-249.2,9.4l23.2-106c69,16.5,145.5,13.6,202.5-33.2,53.8-44.1,78.1-114.3,89.7-180.6,18.3-104.2-15.1-211.8-128.2-237.5-63.5-14.4-137.6,7.5-152.3,78-6.1,29,6.1,67.2,28.3,87.4q-51.3,31.65-103.5,62.1c-45.2-43.2-64.4-123-49-182.8,33.1-129,178.9-178.9,298.6-151.9,79.6,17.9,152.3,60.8,195.4,131.5,42.8,70.2,51.7,156,39.9,236-2,13.5-4,27-7.1,40.3,14.6,2.4,29.2,4.7,43.8,7,75.4,11.9,113.1-55,121-120.3q12.75-104.55,25.4-209,61.35,8.1,122.8,14.7-10.2,104.85-20.5,209.6c-9.5,103.9-90.3,180.9-196.6,170.5,64.7,15.4,94.9,60.1,120.5,117.4,17,38,37.4,79.7,84,83.8A103.55,103.55,0,0,0,3286.8,5555.1Z" transform="translate(0.5 0.5)"/><path class="cls-21" d="M3476.8,5688.8c-63.4-2.5-119.1-57.7-113.8-123.6l38.4-567.9c37.5,2.7,74.9,5.1,112.4,7l-25.5,554.3c-1.3,23.5,22,35.7,42.4,36.3,15.7.5,32.8-3.8,45.5-13.5-.9,29.2-1.8,58.5-2.7,87.7C3545.2,5687.1,3509,5690,3476.8,5688.8Z" transform="translate(0.5 0.5)"/><path class="cls-21" d="M3637.6,5173.8c.9-42.5,39.8-74.4,81-74.1,40.9.3,78.6,33.3,79,75.3.4,42.9-38.5,75.7-80,75.4C3675.8,5250.1,3636.7,5217.3,3637.6,5173.8Zm135.2,522c-64,.4-121.8-51.2-119.8-117.3l4.4-254.6q59.25,1.05,118.3.9.45,120.15,1,240.3c0,23.2,24.1,34.4,44.1,34,16.1-.4,33.4-5.4,45.9-16,.6,29.2,1.2,58.5,1.7,87.7-27.3,18.8-63.2,24.8-95.6,25Z" transform="translate(0.5 0.5)"/><path class="cls-21" d="M4389.7,5467.2c12.6,112.1-75.4,200.3-183.7,209.6-47.7,4.1-98.3-6.7-134.3-40l13.9,254.2q-65.85,3.9-131.7,6.3-9.45-287.85-18.9-575.6,59.7-2.25,119.3-5.7c.7,13.3,1.4,26.7,2.2,40,29.6-36.2,75.2-52.7,120.6-56.5C4281.1,5290.9,4377.7,5360.8,4389.7,5467.2ZM4268,5480.7c-5-55-59.8-93.5-112.8-89.5-40.5,3-79.4,29.5-93.2,68.5l4,74.3c18.5,37.8,62.6,58.3,103.3,55,54.1-4.5,103.8-51.7,98.7-108.3Z" transform="translate(0.5 0.5)"/><path class="cls-21" d="M5433.2,5233.9q-63.9,21.6-128.3,41.6c15.9,56,8.3,114.3-30.9,158.9-41.7,47.4-104.7,73-164.3,88.4-90.9,23.4-251.3,41.1-273.8-84.3-9.7-53.8,23-118.8,76.8-135.8-95.5,5.7-193.3-57.3-210.6-154.8-28.5-160.5,114.4-267.3,253.1-303.3,103.8-26.9,258.8-12.6,294.2,109.8,29.3,101.3-42.2,190-133.3,226q-32.55-46.2-64.4-92.8c37.3-14.6,93.4-49.4,80.1-97.4-17.7-63.7-107.2-49.6-155-37.2-76.1,19.8-165.3,77.7-146.9,168.4,19.5,96.1,148.1,114.5,226.6,93.9,6.2-1.6,13.4-3.5,19.4-6.1l24.6,100.7c-40.1,10.7-146.1,33.9-132.1,93.1,9.7,40.9,80.5,29.3,110,21.8,57.3-14.6,145.1-56.3,125.1-129.8a642.78,642.78,0,0,0-33-91.4q116.25-33.45,230.9-72.2Q5417.45,5182.7,5433.2,5233.9Z" transform="translate(0.5 0.5)"/><path class="cls-21" d="M6646.9,4717q25.05,42.6,50.1,85.3c-19,31-47.9,54.5-77.9,72.8-72,44-143.6,21-209.9-24.6-42.7-29.4-106-52.6-155.8-26-8.2,4.5-12.3,6.7-20.5,11.2,23.8,173.8-92.6,306.1-242.2,375.6l-41.2-99.8c66.7-30.2,127-80.7,147-153.5,18.6-67.8-.2-139.7-29-201.6-20.2-43.5-50.5-86.4-92.9-110.7-46.6-26.6-99.8-22.1-147.2.1-59.5,27.8-108.6,90.9-80.2,158,11.4,26.8,43.2,50.3,72.7,52.7q-24,57.6-49.2,114.6c-61.4-6.7-122.4-59.8-143.4-116.7-46.8-126.4,45.1-255.9,157.4-308.6,73.6-34.6,157.9-47.3,235.2-17.1,75.4,29.5,131.7,93.5,167.1,164.5,6,12.1,12,24.3,17.1,36.9q20.1-11,40.1-22.2c67-37.2,63.6-113.2,31.6-173.4l-98-184.1q55.5-32.55,110.2-66.5l102.4,181.4c53.6,93.5,25,204.9-65.8,262.1,60.8-28,111.1-13,166.6,17.5,37.2,20.5,79,39.6,117.4,13.5A123.44,123.44,0,0,0,6646.9,4717Z" transform="translate(0.5 0.5)"/><path class="cls-21" d="M6885.1,4328c26.4,38.3,4,90-30,115-19.8,14.6-45.6,21.7-70.1,17.2-13.5,23.2-11.2,51.1-2.6,75.6q49.65,77.7,99.2,155.3-54.9,38.55-110.5,75.8-92.85-152.85-185.6-305.8,52.2-35,103.7-71.1l27.8,43.6c1.5-43.2,20.8-87.2,56.1-113.3C6806,4296.2,6859.2,4290.5,6885.1,4328Z" transform="translate(0.5 0.5)"/><path class="cls-21" d="M7242,4034.8c39.2,5.6,76.7,25.6,102.2,55.9,79,93.7,20.7,233.9-61,301.9-36.8,30.6-80.5,53.3-128.6,61.3q-8.25,33.15-16.8,66.1-34.05-.6-68-1.5c5.8-21.9,11.4-43.7,17-65.7-39.9-10-72.3-30.3-96-62.9-67.2-92.1-16.9-226.3,64.9-293.7,34.9-28.7,75.4-50.5,120.6-58.8q5.85-33.3,11.5-66.8c21.8-.4,43.5-.9,65.3-1.5C7249.4,3991,7245.8,4012.9,7242,4034.8Zm-129.1,310.6q23.4-100.95,43.6-202.5c-16.7,4.8-32.2,14.4-45.5,25.4-43,35.6-66.7,102.5-31.5,151.3C7087.8,4331.1,7099.3,4340.6,7112.9,4345.4Zm109.5-202.9q-19.5,102.6-42.3,204.7c18-5.5,33.8-15.1,47.9-26.7,41.1-33.7,69.6-107,30.1-152.1A96.32,96.32,0,0,0,7222.4,4142.5Z" transform="translate(0.5 0.5)"/><path class="cls-21" d="M7658.9,4043.5c-44.3,43.5-123.4,63-170.1,8.3l-367.6-418.9q44.4-43.05,87.8-86.9l367.7,399.2c16.7,18.4,43,4.5,56.6-9.9,11.9-12.6,21.5-29.2,24.2-46.6l59.2,62C7708.3,3986.2,7684,4018.9,7658.9,4043.5Z" transform="translate(0.5 0.5)"/></g></svg>